<svg xmlns="http://www.w3.org/2000/svg" width="224" height="44" viewBox="0 0 224 44">
  <defs>
    <linearGradient id="logo-a" x1="38.079%" x2="53.243%" y1="-4.883%" y2="64.25%">
      <stop offset="1.093%" stop-color="#E67417"/>
      <stop offset="99.952%" stop-color="#E62F17"/>
    </linearGradient>
    <linearGradient id="logo-b" x1="49.997%" x2="49.997%" y1=".659%" y2="97.276%">
      <stop offset="0%" stop-color="#F2BB30"/>
      <stop offset="30.905%" stop-color="#E67417"/>
      <stop offset="100%" stop-color="#E62F17"/>
    </linearGradient>
    <linearGradient id="logo-c" x1="41.259%" x2="55.319%" y1="114.003%" y2="25.46%">
      <stop offset="0%" stop-color="#FFF"/>
      <stop offset="100%" stop-color="#FFF" stop-opacity="0"/>
    </linearGradient>
  </defs>
  <g fill="none" fill-rule="evenodd">
    <path fill="#848E9D" d="M148.653,5.387 L148.653,30.5 L146.772,30.5 L146.772,5.387 L148.653,5.387 Z M162.765,26.606 L162.765,24.395 C162.237,22.943 160.323,21.854 158.244,21.854 C155.802,21.854 153.525,23.075 153.525,25.484 C153.525,27.926 155.802,29.147 158.244,29.147 C160.323,29.147 162.237,28.058 162.765,26.606 Z M164.613,30.5 L162.765,30.5 L162.765,28.883 C162.039,29.741 160.125,30.764 158.046,30.764 C154.515,30.764 151.71,28.751 151.71,25.484 C151.71,22.283 154.515,20.237 158.112,20.237 C160.125,20.237 162.006,21.227 162.765,22.052 L162.765,19.016 C162.765,16.442 161.247,14.726 158.475,14.726 C156.396,14.726 154.977,15.617 154.317,17.663 L152.436,17.663 C153.063,14.759 155.472,13.01 158.508,13.01 C162.303,13.01 164.613,15.32 164.613,18.884 L164.613,30.5 Z M190.968,30.5 L189.054,30.5 L189.054,19.214 C189.054,16.541 187.866,14.792 185.358,14.792 C183.246,14.792 181.497,16.343 180.771,18.389 L180.771,30.5 L178.89,30.5 L178.89,19.214 C178.89,16.541 177.735,14.792 175.194,14.792 C173.082,14.792 171.366,16.343 170.64,18.389 L170.64,30.5 L168.759,30.5 L168.759,13.373 L170.64,13.373 L170.64,15.98 C171.531,14.363 173.28,13.01 175.59,13.01 C178.065,13.01 179.715,14.363 180.375,16.277 C181.332,14.594 183.279,13.01 185.721,13.01 C189.153,13.01 190.968,15.485 190.968,18.917 L190.968,30.5 Z M196.962,18.191 L196.962,25.682 C198.117,27.86 200.031,29.081 202.143,29.081 C205.74,29.081 207.852,26.078 207.852,21.92 C207.852,17.762 205.74,14.792 202.143,14.792 C200.031,14.792 198.117,15.98 196.962,18.191 Z M196.962,27.959 L196.962,37.067 L195.081,37.067 L195.081,13.373 L196.962,13.373 L196.962,15.914 C197.919,14.429 199.932,13.01 202.308,13.01 C207.357,13.01 209.799,17.234 209.799,21.92 C209.799,26.639 207.357,30.83 202.308,30.83 C199.932,30.83 197.919,29.444 196.962,27.959 Z M211.239,26.045 L213.186,26.045 C213.846,28.19 215.595,29.18 217.938,29.18 C220.281,29.18 222.096,28.223 222.096,26.045 C222.096,24.527 221.139,23.57 218.961,22.976 L215.76,22.085 C213.318,21.425 211.701,20.237 211.701,17.762 C211.701,14.759 214.341,13.01 217.509,13.01 C221.04,13.01 223.251,14.825 223.878,17.696 L221.964,17.696 C221.304,15.683 219.918,14.693 217.476,14.693 C215.397,14.693 213.582,15.683 213.582,17.696 C213.582,19.28 214.638,19.874 216.651,20.468 L219.654,21.293 C222.591,22.085 223.977,23.735 223.977,25.979 C223.977,29.048 221.403,30.83 217.905,30.83 C214.473,30.83 211.767,29.081 211.239,26.045 Z"/>
    <path fill="#3D3D3D" d="M51.9328192,15.5665539 C53.6727106,13.8244248 55.4125397,12.7495627 57.6336695,12.7495627 C60.224944,12.7495627 62.0018312,13.7132345 62.7792135,16.0113175 C65.0743418,13.6390853 66.8882871,12.7495627 68.9983141,12.7495627 C72.7001292,12.7495627 74.551068,14.8623061 74.551068,19.6067682 L74.551068,30.6895368 L70.3309679,30.6895368 L70.3309679,20.7187432 C70.3309679,17.9387931 69.8497851,16.6785288 67.8507407,16.6785288 C66.4440538,16.6785288 64.9633152,17.5310728 63.2604843,19.3472886 L63.2604843,30.6895368 L59.0773568,30.6895368 L59.0773568,20.7187432 C59.0773568,17.9387931 58.4850618,16.6785288 56.5230872,16.6785288 C54.9683595,16.6785288 53.4135693,17.6793065 51.9328308,19.3843945 L51.9328308,30.6895368 L47.7497588,30.6895368 L47.7497588,13.0831337 L51.9328192,13.0831337 L51.9328192,15.5665539 Z"/>
    <path fill="#3D3D3D" fill-rule="nonzero" d="M94.1454748,21.9790004 C94.1454748,27.5018596 90.6656919,31.0231008 85.1869294,31.0231008 C79.7081669,31.0231008 76.2655047,27.5018596 76.2655047,21.9790004 C76.2655047,16.3079099 79.7451604,12.7124568 85.1869294,12.7495627 C90.6656988,12.7124568 94.1454748,16.3079099 94.1454748,21.9790004 Z M90.0364035,21.9790004 C90.0364035,18.2723478 88.1485337,16.1966547 85.1869294,16.1966547 C82.2625753,16.1966547 80.3745783,18.2723571 80.3745783,21.9790004 C80.3745783,25.5373476 82.2255795,27.5389006 85.1869294,27.5389006 C88.1485337,27.5389053 90.0364035,25.5373476 90.0364035,21.9790004 Z"/>
    <polygon fill="#3D3D3D" points="95.8 30.69 95.8 6.597 99.983 6.597 99.983 30.69"/>
    <path fill="#3D3D3D" d="M114.404438,29.9482387 C112.994303,30.5315086 111.487727,30.8457791 109.962287,30.8748672 C106.075311,30.8748672 104.483525,29.0956947 104.483525,24.7219095 L104.483525,16.56732 L101.892377,16.56732 L101.892377,13.0460278 L104.483525,13.0460278 L104.483525,8.82053874 L108.703713,8.82053874 L108.703713,13.0460278 L113.59006,13.0460278 L113.59006,16.5673316 L108.703708,16.5673316 L108.703708,24.5365699 C108.703708,26.6493156 109.444109,27.2423731 111.44309,27.2423731 C112.284641,27.2549752 113.125975,27.2054296 113.960249,27.0941394 L114.404438,29.9482387 Z"/>
    <path fill="#3D3D3D" fill-rule="nonzero" d="M118.49768,5.66991179 C119.793255,5.66991179 120.940852,6.44830653 120.940852,7.93095137 C120.940852,9.41359621 119.793255,10.1548874 118.49768,10.1548874 C117.202106,10.1548874 116.054511,9.41360316 116.054511,7.93095137 C116.054511,6.44829958 117.202108,5.66991179 118.49768,5.66991179 Z M116.424712,30.6895368 L116.424712,13.0831337 L120.607645,13.0831337 L120.607645,30.6895368 L116.424712,30.6895368 Z"/>
    <path fill="#3D3D3D" d="M126.834234,15.5295128 C128.759227,13.8244248 130.610228,12.7495627 133.090391,12.7495627 C136.97737,12.7495627 138.828371,14.8252048 138.828371,19.6067682 L138.828371,30.6895368 L134.645188,30.6895368 L134.645188,20.7187432 C134.645188,17.8646461 134.200998,16.6785288 131.868812,16.6785288 C129.980815,16.6785288 128.31504,17.7164124 126.834237,19.4214379 L126.834237,30.6895368 L122.651301,30.6895368 L122.651301,13.0831337 L126.834234,13.0831337 L126.834234,15.5295128 Z"/>
    <path fill="#FFF" d="M36.9310465,11.0960358 L19.9285873,1.26713053 C19.5524131,1.05016253 19.0893186,1.05016253 18.7131444,1.26713053 L1.71068757,11.0960358 C1.33465512,11.3136713 1.10304892,11.7155541 1.1030286,12.1504448 L1.1030286,31.8082554 C1.10306081,32.243009 1.33468827,32.6447336 1.71068757,32.8621526 L18.7131444,42.6910579 C19.0893178,42.9080287 19.5524139,42.9080287 19.9285873,42.6910579 L36.9310465,32.8621526 C37.3070445,32.6447327 37.5386709,32.2430084 37.5387031,31.8082554 L37.5387031,12.1504448 C37.5386828,11.7155547 37.3070777,11.3136723 36.9310465,11.0960358 Z"/>
    <path fill="#999" fill-rule="nonzero" d="M37.4534968,10.1916019 L20.4502744,0.362189474 C19.7513017,-0.0411438239 18.8906844,-0.0411438239 18.1917117,0.362189474 L1.18900045,10.1910947 C0.491269773,10.5965683 0.0612199156,11.3426817 0.0596543594,12.1504495 L0.0596543594,31.80826 C0.0610108941,32.6159834 0.491199813,33.362059 1.18912765,33.7671029 L18.1914573,43.5960082 C18.8902484,44.0000206 19.7512289,44.0000206 20.45002,43.5960082 L37.4527336,33.7671029 C38.1505903,33.3620046 38.5807192,32.615949 38.5820797,31.80826 L38.5820797,12.1504495 C38.5806055,11.3429894 38.1508609,10.5970945 37.4534968,10.1916019 Z M37.5387031,31.8082646 C37.5386709,32.2430177 37.3070445,32.6447419 36.9310465,32.8621619 L19.9285873,42.6910672 C19.5524139,42.908038 19.0893178,42.908038 18.7131444,42.6910672 L1.71068757,32.8621619 C1.33468827,32.6447429 1.10306081,32.2430183 1.1030286,31.8082646 L1.1030286,12.1504541 C1.10304892,11.7155634 1.33465512,11.3136806 1.71068757,11.0960451 L18.7131444,1.26713979 C19.0893186,1.05017179 19.5524131,1.05017179 19.9285873,1.26713979 L36.9310465,11.0960451 C37.3070777,11.3136815 37.5386828,11.715564 37.5387031,12.1504541 L37.5387031,31.8082646 Z"/>
    <path fill="url(#logo-a)" d="M4.07643057,31.5903118 C3.64902246,31.3432316 3.38572721,30.8866071 3.38572546,30.3924442 L3.38572546,20.4123179 C3.35446947,19.2659374 3.52283967,18.1228641 3.88328995,17.0343291 C4.46304253,15.4674474 5.60965839,13.9345777 7.88252116,13.0305491 C12.2374698,11.2983733 16.5417494,13.6403613 18.9734052,17.1121859 C21.015218,20.0274059 22.2068805,21.1864794 24.7743539,23.1545438 C27.0477972,24.8972147 34.1776924,28.0313648 35.2560456,21.7886912 L35.2560456,30.3924512 C35.2560448,30.8866137 34.9927503,31.3432383 34.5653428,31.5903187 L20.0115848,40.0037533 C19.5841778,40.250834 19.057591,40.250834 18.6301839,40.0037533 L4.07643057,31.5903118 Z"/>
    <path fill="url(#logo-b)" d="M4.07643057,31.5903118 L18.6301885,40.0037463 C19.0575956,40.250827 19.5841824,40.250827 20.0115895,40.0037463 L34.5653474,31.5903118 C34.992755,31.3432313 35.2560494,30.8866068 35.2560502,30.3924442 L35.2560502,21.7886842 C35.2560502,15.4157265 28.1567883,14.8895792 24.4980053,19.9545627 C21.5980513,23.9690648 20.3135525,25.4063943 16.4315878,26.8198457 C11.8884295,28.4740303 7.81060659,27.577044 5.4915107,25.3054444 C4.16519363,24.0213897 3.40694341,22.259474 3.38572546,20.4123156 L3.38572546,30.3924419 C3.38572638,30.8866056 3.64902175,31.3432312 4.07643057,31.5903118 Z"/>
    <path fill="url(#logo-c)" d="M35.2560433,21.7886842 C35.2560433,15.4157335 28.1567813,14.8895745 24.4979798,19.9545627 C23.9945246,20.6515251 23.5404017,21.2692642 23.1122724,21.8242223 C23.6063122,22.2444177 24.1493627,22.6754625 24.774347,23.1545368 C27.0477972,24.8972055 34.1776877,28.0313602 35.2560433,21.7886842 Z" opacity=".3"/>
  </g>
</svg>
